<svg width="88" height="30" viewBox="0 0 88 30" fill="none" xmlns="http://www.w3.org/2000/svg">
<path d="M14.9912 27.2501C18.2183 27.2501 21.2107 26.4889 24.6725 24.7799V27.5298C21.2107 29.2387 18.2183 30 14.9912 30C6.73285 30 0 23.6458 0 14.464C0 13.9669 0.0146685 13.5008 0.058674 13.0192C0.660083 21.4863 7.1289 27.2501 14.9912 27.2501ZM4.15119 11.7141C4.15119 4.90938 9.06515 0.372863 14.9912 0.372863C18.2183 0.372863 21.4454 1.32056 24.6725 3.52667V6.27654C21.4454 4.08597 18.2183 3.12273 14.9912 3.12273C9.54921 3.12273 4.82594 6.97566 4.22453 13.1434C4.18053 12.6774 4.15119 12.2113 4.15119 11.7141ZM61.6811 14.464C61.6811 23.0243 55.1096 29.9845 47.0126 29.9845C38.9156 29.9845 32.3588 23.0399 32.3588 14.464C32.3588 13.9824 32.3734 13.5318 32.4174 13.0658C33.0482 21.0047 39.341 27.2346 47.0126 27.2346C54.6696 27.2346 60.9624 21.0047 61.6225 13.0813C61.6665 13.5474 61.6811 14.0135 61.6811 14.464ZM57.5593 11.6675C57.5593 5.37545 52.836 0.450543 47.0566 0.450543C41.2625 0.450543 36.554 5.37545 36.554 11.6675C36.554 12.1647 36.5686 12.6152 36.6273 13.0968C37.2434 7.47281 41.6879 3.20041 47.0713 3.20041C52.4693 3.20041 56.8992 7.45728 57.5153 13.1124C57.5446 12.6308 57.5593 12.1647 57.5593 11.6675ZM87.9965 21.1756C87.9965 26.349 83.5519 30 78.1245 30C74.164 30 70.4822 28.5241 68.0473 25.3081L69.4701 24.1119C71.8024 26.2714 74.8535 27.2501 78.1099 27.2501C83.0825 27.2501 87.219 24.1895 87.8791 19.7152C87.9818 20.1657 88.0111 20.6473 87.9965 21.1756ZM83.9626 18.4257C83.9626 19.0005 83.8893 19.4821 83.7573 19.9327C81.997 14.7281 68.8247 16.5148 68.8247 6.94459C68.8247 6.46297 68.854 6.02796 68.9274 5.60849C70.2622 14.1844 83.9626 12.0093 83.9626 18.4257ZM85.9869 1.39824C86.4856 1.80218 86.9697 2.26825 87.3804 2.79648L84.608 5.48421C83.1412 3.93061 80.8969 2.74987 78.0512 2.74987C75.7336 2.74987 73.768 3.69757 73.1079 5.49974C72.9466 5.11134 72.8585 4.69187 72.8585 4.17918C72.8585 1.44485 75.1615 0 78.0512 0C80.8969 0 83.1412 1.18073 84.608 2.73433C84.608 2.73433 85.9869 1.39824 85.9869 1.39824Z" fill="black"/>
</svg>
